<?xml version="1.0" encoding="utf-8"?>
<!-- Generator: Adobe Illustrator 19.0.0, SVG Export Plug-In . SVG Version: 6.00 Build 0)  -->
<svg version="1.1" id="Layer_1" xmlns="http://www.w3.org/2000/svg" xmlns:xlink="http://www.w3.org/1999/xlink" x="0px" y="0px"
	 viewBox="0 0 748 748" style="enable-background:new 0 0 748 748;" xml:space="preserve">
<style type="text/css">
	.st0{fill:#404041;}
	.st1{fill:#E6E7E8;}
	.st2{fill:#FFFFFF;}
</style>
<g id="XMLID_23_">
	<rect id="XMLID_92_" x="-3.9" y="0" class="st0" width="755.7" height="748"/>
	<g id="XMLID_20_">
		<g id="XMLID_93_">
			<path id="XMLID_94_" class="st1" d="M137.3,580.8v-96.4h12l34.7,40.5l34.7-40.5h12v96.4h-13.4v-75.2l-33.3,38.9l-33.3-38.9v75.2
				H137.3z"/>
			<path id="XMLID_104_" class="st1" d="M266.8,580.8v-96.4h57.9v12.3h-44.3v29.2h43.1v12.5h-43.1v30h45.8v12.4H266.8z"/>
			<path id="XMLID_106_" class="st1" d="M394.5,484.4c7.1,0,13.2,0.7,18.4,2c5.1,1.3,9.8,3.4,14.1,6.3c6.5,4.4,11.6,10.1,15.1,17
				c3.6,6.9,5.3,14.5,5.3,22.8c0,8.3-1.8,16-5.4,22.9c-3.6,7-8.6,12.6-15.1,17c-4.2,2.9-8.9,5-14.1,6.3c-5.2,1.3-11.3,2-18.4,2
				h-35.4v-96.4H394.5z M394.5,497.5h-21.8v70.1h21.8c11.9,0,21.2-3.1,28-9.4c6.8-6.2,10.2-14.8,10.2-25.6
				c0-10.9-3.4-19.5-10.2-25.7C415.8,500.7,406.4,497.5,394.5,497.5z"/>
			<path id="XMLID_109_" class="st1" d="M479.6,580.8v-96.4h13.8v96.4H479.6z"/>
			<path id="XMLID_111_" class="st1" d="M516.6,580.8l41.8-96.4h10.1l42.3,96.4h-14.3L584,552.4H543l-12.3,28.4H516.6z M548.4,540
				h30l-15.2-34.7L548.4,540z"/>
		</g>
		<g id="XMLID_448_">
			<path id="XMLID_649_" class="st2" d="M353.4,379.7c-6.4,4.8-12.7,7.6-18.8,8.4c-6.1,0.8-13.3,1.2-21.7,1.2
				c-10.6,0-21.8-1.4-33.7-4.3c-11.9-2.9-23.4-7-34.7-12.3c-11.2-5.3-21.9-11.6-32-19c-10.1-7.4-18.7-15.4-25.8-24.1
				c1.3,0,2.6,0.1,3.9,0.2c1.3,0.2,2.6,0.2,3.9,0.2c11.6,0,23.4-1.8,35.7-5.5c12.2-3.7,23.9-9.2,35.2-16.6
				c11.2-7.4,21.5-16.5,30.8-27.5c9.3-10.9,17-23.6,23.1-38.1c1.6-3.5,3-7.6,4.3-12.3c1.3-4.7,1.9-9.2,1.9-13.7
				c0-11.6-3.7-20.6-11.1-27c-7.4-6.4-16-11.3-25.8-14.7c-9.8-3.4-19.5-5.5-29.1-6.3c-9.6-0.8-16.5-1.2-20.7-1.2
				c-12.5,0-24.7,1.3-36.6,3.9c-11.9,2.6-23,5.8-33.5,9.6c-10.4,3.9-19.7,7.9-27.7,12.3c-8,4.3-14.3,8.1-18.8,11.3h-0.5
				c-3.5,2.9-6.3,5.1-8.4,6.7c-2.1,1.6-3.9,3.2-5.3,4.8c-1.4,1.6-2.4,3.5-2.9,5.5c-0.5,2.1-0.7,5.1-0.7,8.9c0,3.5,1,7.6,3.1,12
				c2.1,4.5,6,9,11.8,13.5c0.3,0,1.3-1,2.9-2.9c1.6-1.9,4-4.6,7.2-7.9c3.2-3.4,7.5-7.3,13-11.8c5.5-4.5,12.4-9.2,20.7-14
				c0,1.9-0.4,4.3-1.2,7.2c-0.8,2.9-1.7,5.8-2.6,8.7l-3.4,10.1c-1.6,5.8-3.3,11-5.1,15.7c-1.8,4.7-3.5,9.2-5.3,13.7
				c-1.8,4.5-3.5,9.3-5.3,14.5c-1.8,5.1-3.3,10.8-4.6,16.9c-6.7-1.3-12.3-3.4-16.6-6.3c-4.3-2.9-7.9-5.9-10.6-8.9
				c-2.7-3-4.8-5.7-6.3-7.9c-1.4-2.2-2.5-3.4-3.1-3.4c-1.9,0-2.9,0.8-2.9,2.4v1c0,0.3,0.2,0.5,0.5,0.5c2.2,3.9,4.7,7.4,7.5,10.6
				c2.7,3.2,6.4,6.7,11.1,10.6c4.7,3.9,10.7,7.6,18.1,11.1c-1.6,7.4-3.3,14.4-5.1,21c-1.8,6.6-2.6,13.2-2.6,20c0,4.2,1,7.5,2.9,9.9
				c1.9,2.4,4,4.3,6.3,5.8c2.2,1.4,4.4,2.5,6.5,3.1c2.1,0.6,3.4,1,4.1,1c0-1.9,0.3-4.7,1-8.2c0.6-3.5,1.4-7.1,2.2-10.6
				c0.8-3.5,1.8-8,3.1-13.5c0-1,0.2-2.2,0.7-3.9c0.5-1.6,1-3.4,1.4-5.3c0.5-1.9,1-3.8,1.7-5.5c0.6-1.8,1.3-3,1.9-3.6
				c10.9,12.2,21.9,24.2,33,35.9c11.1,11.7,23,22,35.9,30.8c12.8,8.8,26.7,15.8,41.7,21c14.9,5.1,31.7,7.4,50.3,6.7
				c10-0.3,18-2,24.1-5.1c6.1-3.1,10.4-6.7,13-10.8c2.6-4.2,3.7-8.5,3.4-13C358.4,386.7,356.6,382.9,353.4,379.7z M161.2,314.2
				c2.2-5.8,4.2-10.8,5.8-14.9c1.6-4.2,3.3-8.1,5.1-11.8c1.8-3.7,3.5-7.4,5.3-11.1c1.8-3.7,3.8-7.8,6-12.3c1.9-3.9,3.4-6.7,4.3-8.7
				c1-1.9,1.7-3.5,2.2-4.8c0.5-1.3,0.7-2.4,0.7-3.4c0-1,0-2.2,0-3.9c0-3.5-1.2-6.7-3.6-9.6c-2.4-2.9-5.1-5.5-8.2-7.7
				c-3.1-2.2-6.1-3.9-9.2-5.1c-3.1-1.1-5.1-1.7-6-1.7c4.5-2.6,9.7-5.4,15.7-8.4c5.9-3,12.5-5.9,19.8-8.4c7.2-2.6,14.9-4.7,23.1-6.3
				c8.2-1.6,16.6-2.4,25.3-2.4c5.1,0,10.5,0.5,16.1,1.4c5.6,1,10.8,2.4,15.7,4.3s8.8,4.4,12,7.5c3.2,3.1,4.8,6.7,4.8,10.8
				c0,4.5-1.2,10-3.6,16.4c-2.4,6.4-5.4,13.2-8.9,20.2c-10.9,21.2-25,37-42.2,47.5c-17.2,10.4-35.4,15.7-54.7,15.7
				c-3.9,0-8.4-0.2-13.7-0.5C167.7,316.7,163.8,315.8,161.2,314.2z"/>
			<path id="XMLID_652_" class="st2" d="M560.6,173.9L560.6,173.9C560.6,174,560.6,174,560.6,173.9c0,1.9-0.4,4.4-1.2,7.2
				c-0.8,2.9-1.7,5.8-2.6,8.7l-3.4,10.1c-2.6,6.4-5.1,13-7.7,19.8c-2.6,6.7-5.9,15.4-10.1,26c-4.5-0.6-9-1.2-13.5-1.7
				c-4.5-0.5-8.7-1-12.5-1.7c-0.6,0-1.3,0.2-1.9,0.7c-0.6,0.5-1,1-1,1.7c0,1,1.5,3.8,4.6,8.4c3,4.7,7.6,12.1,13.7,22.4
				c-2.9,8.7-6.4,19-10.6,30.8c-4.2,11.9-8.2,24.3-12,37.1c0,0,0,0,0,0.1c-2.1,1.3-4.3,2.5-6.7,3.6c-2.6,1.1-5.3,1.7-8.2,1.7
				c-2.6,0-4.5-0.3-5.8-1c5.1-6.4,10.2-14.9,15.2-25.3c5-10.4,7.5-21.4,7.5-33c0-1.6,0-3.1,0-4.6s-0.2-3-0.5-4.6
				c0-2.2-0.6-5.1-1.7-8.7c-1.1-3.5-2.7-6.9-4.8-10.1c-2.1-3.2-4.9-6-8.4-8.4c-3.5-2.4-7.9-3.6-13-3.6c-5.1,0-9.3,0.8-12.5,2.4
				c-3.2,1.6-6.1,3.4-8.7,5.3c-2.6-4.2-4.4-6.7-5.5-7.5c-1.1-0.8-2-1.2-2.6-1.2c-1.9,0.6-5.5,3-10.6,7c-5.1,4-10.4,9.6-15.7,16.6
				c-5.3,7.1-10,15.5-14.2,25.3c-4.2,9.8-6.3,21-6.3,33.5c0,3.5,0.4,7.2,1.2,10.9c-0.7,0.4-1.4,0.9-2.1,1.4
				c-2.3,1.4-4.7,2.7-7.2,3.9c-2.6,1.1-5.3,1.7-8.2,1.7c-2.6,0-4.5-0.3-5.8-1c5.1-6.4,10.2-14.9,15.2-25.3c5-10.4,7.5-21.4,7.5-33
				c0-1.6,0-3.1,0-4.6s-0.2-3-0.5-4.6c0-2.2-0.6-5.1-1.7-8.7c-1.1-3.5-2.7-6.9-4.8-10.1c-2.1-3.2-4.9-6-8.4-8.4
				c-3.5-2.4-7.9-3.6-13-3.6c-5.1,0-9.3,0.8-12.5,2.4c-3.2,1.6-6.1,3.4-8.7,5.3c-2.6-4.2-4.4-6.7-5.5-7.5c-1.1-0.8-2-1.2-2.6-1.2
				c-1.9,0.6-5.5,3-10.6,7c-5.1,4-10.4,9.6-15.7,16.6c-5.3,7.1-10,15.5-14.2,25.3c-4.2,9.8-6.3,21-6.3,33.5c0,4.8,0.7,9.8,2.2,14.9
				c1.4,5.1,3.6,10,6.5,14.5c2.9,4.5,6.7,8.2,11.3,11.1c4.7,2.9,10.4,4.3,17.1,4.3c8,0,15-2.2,21-6.5c5.9-4.3,9.7-7.6,11.3-9.9
				c4.2,1.6,8.2,2.4,12,2.4c6.1,0,11.3-0.9,15.7-2.7c4.3-1.8,7.7-3.9,10.1-6.3c0.4-0.4,0.7-0.8,1.1-1.2c1.2,3,2.7,5.9,4.5,8.6
				c2.9,4.5,6.7,8.2,11.3,11.1c4.7,2.9,10.4,4.3,17.1,4.3c8,0,15-2.2,21-6.5c5.9-4.3,9.7-7.6,11.3-9.9c4.2,1.6,8.2,2.4,12,2.4
				c6.1,0,11.3-0.9,15.7-2.7c0.5-0.2,0.9-0.4,1.3-0.6c-2.1,7.8-4,15.6-5.6,23.5c-2.7,12.8-4.1,24.6-4.1,35.2c0,2.9,0.2,6.2,0.5,9.9
				c0.3,3.7,1.3,7.1,2.9,10.4c1.6,3.2,4,5.9,7.2,8.2c3.2,2.2,7.7,3.4,13.5,3.4c1.9,0,3.5-0.2,4.8-0.5c3.5-0.3,8.4-2.1,14.7-5.3
				c6.3-3.2,12.4-7.8,18.3-13.7c5.9-5.9,11.2-13.5,15.7-22.6c4.5-9.2,6.7-20,6.7-32.5c0-8.7-0.9-16.8-2.6-24.3
				c-1.8-7.5-3.9-14.5-6.5-21c-2.6-6.4-5.4-12.4-8.4-18.1c-3.1-5.6-5.7-10.7-7.9-15.2c2.9-7.4,5.7-14.4,8.4-21
				c2.7-6.6,5.5-13.1,8.4-19.5c8.3-0.3,15.5-0.6,21.4-0.7c5.9-0.2,8.9-0.7,8.9-1.7c0-0.6-1.9-1.2-5.5-1.7c-3.7-0.5-11-1.2-21.9-2.2
				c1.9-4.8,4.1-9.7,6.5-14.7c2.4-5,4.7-9.7,6.7-14.2c2.1-4.5,3.9-8.7,5.3-12.8c0.8-2.3,1.4-4.4,1.7-6.3c15.4-0.1,33.7-0.3,42.9-0.4
				c17.8-0.2,21.8-27.7,21.8-27.7L560.6,173.9z M341.4,361.9c-3.2,1.3-5.6,1.9-7.2,1.9c-6.4-0.6-11.4-3-14.9-7
				c-3.5-4-5.3-10.4-5.3-19c0-8.7,1.8-16.7,5.5-24.1c3.7-7.4,8.3-14,13.7-19.8c-0.3,1.9-0.6,3.9-0.7,6c-0.2,2.1-0.2,4.1-0.2,6
				c0,8.7,1.4,17.5,4.1,26.5c2.7,9,8.3,16.1,16.6,21.2C348.4,357.8,344.6,360.6,341.4,361.9z M376.6,307.9c-0.3,2.3-0.8,4.3-1.4,6.3
				c-1.3,5.8-2.9,10.9-4.8,15.4c-1.9,4.5-4.2,8.5-6.7,12c-3.9-1.3-6.4-4.7-7.7-10.1c-1.3-5.5-1.9-10-1.9-13.5
				c0-3.9,0.6-7.9,1.7-12.3c1.1-4.3,2.6-8.3,4.3-12c1.8-3.7,3.8-6.8,6-9.4c2.2-2.6,4.7-3.9,7.2-3.9c1.9,0.6,3,3.1,3.4,7.2
				c0.3,4.2,0.5,8.7,0.5,13.5C377,303.4,376.9,305.7,376.6,307.9z M445.4,361.9c-3.2,1.3-5.6,1.9-7.2,1.9c-6.4-0.6-11.4-3-14.9-7
				c-3.5-4-5.3-10.4-5.3-19c0-8.7,1.8-16.7,5.5-24.1c3.7-7.4,8.3-14,13.7-19.8c-0.3,1.9-0.6,3.9-0.7,6c-0.2,2.1-0.2,4.1-0.2,6
				c0,8.7,1.4,17.5,4.1,26.5c2.7,9,8.3,16.1,16.6,21.2C452.5,357.8,448.7,360.6,445.4,361.9z M480.6,307.9c-0.3,2.3-0.8,4.3-1.4,6.3
				c-1.3,5.8-2.9,10.9-4.8,15.4c-1.9,4.5-4.2,8.5-6.7,12c-3.9-1.3-6.4-4.7-7.7-10.1c-1.3-5.5-1.9-10-1.9-13.5
				c0-3.9,0.6-7.9,1.7-12.3c1.1-4.3,2.6-8.3,4.3-12c1.8-3.7,3.8-6.8,6-9.4c2.2-2.6,4.7-3.9,7.2-3.9c1.9,0.6,3,3.1,3.4,7.2
				c0.3,4.2,0.5,8.7,0.5,13.5C481.1,303.4,480.9,305.7,480.6,307.9z M522.5,258.3c-0.6-0.6-1-1.1-1-1.4c0-0.6,0.6-1,1.9-1
				c1.3,0,4,0,8.2,0c-0.6,1.6-1.2,3.3-1.7,5.1c-0.5,1.8-1,3.5-1.7,5.1c-1-1.6-1.9-3-2.9-4.1C524.4,260.8,523.5,259.6,522.5,258.3z
				 M553.1,336.1c3.4,10.1,5.1,20.6,5.1,31.6c0,4.8-0.8,10.8-2.4,17.8c-1.6,7.1-4.1,13.9-7.5,20.5c-3.4,6.6-7.5,12.2-12.5,16.9
				c-5,4.7-10.8,7-17.6,7c-2.6,0-4.3-1-5.1-3.1c-0.8-2.1-1.2-4.6-1.2-7.5c0-2.3,0.1-4.4,0.2-6.5c0.2-2.1,0.4-4.1,0.7-6
				c2.6-16.4,6.6-33,12-49.9c5.5-16.9,11.2-33,17.3-48.4C546.1,316.7,549.7,326,553.1,336.1z"/>
		</g>
	</g>
</g>
</svg>
