<?xml version="1.0" encoding="utf-8"?>
<!-- Generator: Adobe Illustrator 19.0.0, SVG Export Plug-In . SVG Version: 6.00 Build 0)  -->
<svg version="1.1" id="Layer_1" xmlns="http://www.w3.org/2000/svg" xmlns:xlink="http://www.w3.org/1999/xlink" x="0px" y="0px"
	 viewBox="0 0 127 127" style="enable-background:new 0 0 127 127;" xml:space="preserve">
<style type="text/css">
	.st0{fill:#0E0E0E;}
	.st1{fill:#E6E7E8;}
	.st2{fill:#FFFFFF;}
</style>
<rect id="XMLID_92_" x="-0.7" y="-2.8" class="st0" width="128.3" height="129.8"/>
<g id="XMLID_6_">
	<g id="XMLID_93_">
		<path id="XMLID_94_" class="st1" d="M23.3,98.6V82.2h2l5.9,6.9l5.9-6.9h2v16.4h-2.3V85.8l-5.7,6.6l-5.7-6.6v12.8H23.3z"/>
		<path id="XMLID_104_" class="st1" d="M45.3,98.6V82.2h9.8v2.1h-7.5v5h7.3v2.1h-7.3v5.1h7.8v2.1H45.3z"/>
		<path id="XMLID_106_" class="st1" d="M67,82.2c1.2,0,2.2,0.1,3.1,0.3c0.9,0.2,1.7,0.6,2.4,1.1c1.1,0.7,2,1.7,2.6,2.9
			c0.6,1.2,0.9,2.5,0.9,3.9c0,1.4-0.3,2.7-0.9,3.9c-0.6,1.2-1.5,2.1-2.6,2.9c-0.7,0.5-1.5,0.9-2.4,1.1c-0.9,0.2-1.9,0.3-3.1,0.3h-6
			V82.2H67z M67,84.5h-3.7v11.9H67c2,0,3.6-0.5,4.8-1.6c1.2-1.1,1.7-2.5,1.7-4.4c0-1.8-0.6-3.3-1.7-4.4C70.6,85,69,84.5,67,84.5z"/>
		<path id="XMLID_109_" class="st1" d="M81.4,98.6V82.2h2.3v16.4H81.4z"/>
		<path id="XMLID_111_" class="st1" d="M87.7,98.6l7.1-16.4h1.7l7.2,16.4h-2.4l-2.1-4.8h-7l-2.1,4.8H87.7z M93.1,91.7h5.1l-2.6-5.9
			L93.1,91.7z"/>
	</g>
	<g id="XMLID_448_">
		<path id="XMLID_649_" class="st2" d="M60,64.5c-1.1,0.8-2.2,1.3-3.2,1.4c-1,0.1-2.3,0.2-3.7,0.2c-1.8,0-3.7-0.2-5.7-0.7
			c-2-0.5-4-1.2-5.9-2.1c-1.9-0.9-3.7-2-5.4-3.2c-1.7-1.3-3.2-2.6-4.4-4.1c0.2,0,0.4,0,0.7,0c0.2,0,0.4,0,0.7,0c2,0,4-0.3,6.1-0.9
			c2.1-0.6,4.1-1.6,6-2.8c1.9-1.3,3.7-2.8,5.2-4.7c1.6-1.9,2.9-4,3.9-6.5c0.3-0.6,0.5-1.3,0.7-2.1c0.2-0.8,0.3-1.6,0.3-2.3
			c0-2-0.6-3.5-1.9-4.6c-1.3-1.1-2.7-1.9-4.4-2.5c-1.7-0.6-3.3-0.9-4.9-1.1c-1.6-0.1-2.8-0.2-3.5-0.2c-2.1,0-4.2,0.2-6.2,0.7
			c-2,0.4-3.9,1-5.7,1.6c-1.8,0.7-3.3,1.3-4.7,2.1c-1.4,0.7-2.4,1.4-3.2,1.9h-0.1c-0.6,0.5-1.1,0.9-1.4,1.1
			c-0.4,0.3-0.7,0.5-0.9,0.8c-0.2,0.3-0.4,0.6-0.5,0.9c-0.1,0.4-0.1,0.9-0.1,1.5c0,0.6,0.2,1.3,0.5,2c0.4,0.8,1,1.5,2,2.3
			c0.1,0,0.2-0.2,0.5-0.5c0.3-0.3,0.7-0.8,1.2-1.3c0.5-0.6,1.3-1.2,2.2-2c0.9-0.8,2.1-1.6,3.5-2.4c0,0.3-0.1,0.7-0.2,1.2
			c-0.1,0.5-0.3,1-0.4,1.5l-0.6,1.7c-0.3,1-0.6,1.9-0.9,2.7c-0.3,0.8-0.6,1.6-0.9,2.3c-0.3,0.8-0.6,1.6-0.9,2.5
			C23.5,50,23.3,50.9,23,52c-1.1-0.2-2.1-0.6-2.8-1.1c-0.7-0.5-1.3-1-1.8-1.5c-0.5-0.5-0.8-1-1.1-1.3c-0.2-0.4-0.4-0.6-0.5-0.6
			c-0.3,0-0.5,0.1-0.5,0.4V48c0,0.1,0,0.1,0.1,0.1c0.4,0.7,0.8,1.3,1.3,1.8c0.5,0.5,1.1,1.1,1.9,1.8c0.8,0.7,1.8,1.3,3.1,1.9
			c-0.3,1.3-0.6,2.4-0.9,3.6c-0.3,1.1-0.4,2.2-0.4,3.4c0,0.7,0.2,1.3,0.5,1.7c0.3,0.4,0.7,0.7,1.1,1c0.4,0.2,0.7,0.4,1.1,0.5
			c0.4,0.1,0.6,0.2,0.7,0.2c0-0.3,0.1-0.8,0.2-1.4c0.1-0.6,0.2-1.2,0.4-1.8c0.1-0.6,0.3-1.4,0.5-2.3c0-0.2,0-0.4,0.1-0.7
			c0.1-0.3,0.2-0.6,0.2-0.9c0.1-0.3,0.2-0.6,0.3-0.9c0.1-0.3,0.2-0.5,0.3-0.6c1.9,2.1,3.7,4.1,5.6,6.1c1.9,2,3.9,3.7,6.1,5.2
			c2.2,1.5,4.5,2.7,7.1,3.6c2.5,0.9,5.4,1.3,8.5,1.1c1.7-0.1,3.1-0.3,4.1-0.9c1-0.5,1.8-1.1,2.2-1.8c0.4-0.7,0.6-1.4,0.6-2.2
			C60.9,65.7,60.6,65,60,64.5z M27.4,53.3c0.4-1,0.7-1.8,1-2.5c0.3-0.7,0.6-1.4,0.9-2c0.3-0.6,0.6-1.3,0.9-1.9
			c0.3-0.6,0.6-1.3,1-2.1c0.3-0.7,0.6-1.1,0.7-1.5c0.2-0.3,0.3-0.6,0.4-0.8c0.1-0.2,0.1-0.4,0.1-0.6c0-0.2,0-0.4,0-0.7
			c0-0.6-0.2-1.1-0.6-1.6c-0.4-0.5-0.9-0.9-1.4-1.3c-0.5-0.4-1-0.7-1.6-0.9c-0.5-0.2-0.9-0.3-1-0.3c0.8-0.4,1.6-0.9,2.7-1.4
			c1-0.5,2.1-1,3.4-1.4c1.2-0.4,2.5-0.8,3.9-1.1c1.4-0.3,2.8-0.4,4.3-0.4c0.9,0,1.8,0.1,2.7,0.2c1,0.2,1.8,0.4,2.7,0.7
			c0.8,0.3,1.5,0.8,2,1.3c0.5,0.5,0.8,1.1,0.8,1.8c0,0.8-0.2,1.7-0.6,2.8c-0.4,1.1-0.9,2.2-1.5,3.4c-1.9,3.6-4.2,6.3-7.2,8.1
			c-2.9,1.8-6,2.7-9.3,2.7c-0.7,0-1.4,0-2.3-0.1C28.5,53.8,27.8,53.6,27.4,53.3z"/>
		<path id="XMLID_652_" class="st2" d="M95.2,29.5L95.2,29.5C95.2,29.5,95.2,29.5,95.2,29.5c0,0.3-0.1,0.7-0.2,1.2
			c-0.1,0.5-0.3,1-0.4,1.5L94,34c-0.4,1.1-0.9,2.2-1.3,3.4c-0.4,1.1-1,2.6-1.7,4.4c-0.8-0.1-1.5-0.2-2.3-0.3
			c-0.8-0.1-1.5-0.2-2.1-0.3c-0.1,0-0.2,0-0.3,0.1c-0.1,0.1-0.2,0.2-0.2,0.3c0,0.2,0.3,0.6,0.8,1.4c0.5,0.8,1.3,2.1,2.3,3.8
			C88.6,48.3,88,50,87.3,52c-0.7,2-1.4,4.1-2,6.3c0,0,0,0,0,0c-0.4,0.2-0.7,0.4-1.1,0.6c-0.4,0.2-0.9,0.3-1.4,0.3
			c-0.4,0-0.8-0.1-1-0.2c0.9-1.1,1.7-2.5,2.6-4.3c0.8-1.8,1.3-3.6,1.3-5.6c0-0.3,0-0.5,0-0.8s0-0.5-0.1-0.8c0-0.4-0.1-0.9-0.3-1.5
			c-0.2-0.6-0.5-1.2-0.8-1.7c-0.4-0.5-0.8-1-1.4-1.4c-0.6-0.4-1.3-0.6-2.2-0.6c-0.9,0-1.6,0.1-2.1,0.4c-0.5,0.3-1,0.6-1.5,0.9
			c-0.4-0.7-0.8-1.1-0.9-1.3c-0.2-0.1-0.3-0.2-0.4-0.2c-0.3,0.1-0.9,0.5-1.8,1.2c-0.9,0.7-1.8,1.6-2.7,2.8c-0.9,1.2-1.7,2.6-2.4,4.3
			c-0.7,1.7-1.1,3.6-1.1,5.7c0,0.6,0.1,1.2,0.2,1.8c-0.1,0.1-0.2,0.2-0.4,0.2c-0.4,0.2-0.8,0.5-1.2,0.7c-0.4,0.2-0.9,0.3-1.4,0.3
			c-0.4,0-0.8-0.1-1-0.2c0.9-1.1,1.7-2.5,2.6-4.3c0.8-1.8,1.3-3.6,1.3-5.6c0-0.3,0-0.5,0-0.8s0-0.5-0.1-0.8c0-0.4-0.1-0.9-0.3-1.5
			c-0.2-0.6-0.5-1.2-0.8-1.7c-0.4-0.5-0.8-1-1.4-1.4c-0.6-0.4-1.3-0.6-2.2-0.6c-0.9,0-1.6,0.1-2.1,0.4c-0.5,0.3-1,0.6-1.5,0.9
			c-0.4-0.7-0.8-1.1-0.9-1.3c-0.2-0.1-0.3-0.2-0.4-0.2c-0.3,0.1-0.9,0.5-1.8,1.2c-0.9,0.7-1.8,1.6-2.7,2.8c-0.9,1.2-1.7,2.6-2.4,4.3
			c-0.7,1.7-1.1,3.6-1.1,5.7c0,0.8,0.1,1.7,0.4,2.5c0.2,0.9,0.6,1.7,1.1,2.5c0.5,0.8,1.1,1.4,1.9,1.9c0.8,0.5,1.8,0.7,2.9,0.7
			c1.4,0,2.5-0.4,3.6-1.1c1-0.7,1.6-1.3,1.9-1.7c0.7,0.3,1.4,0.4,2,0.4c1,0,1.9-0.1,2.7-0.5c0.7-0.3,1.3-0.7,1.7-1.1
			c0.1-0.1,0.1-0.1,0.2-0.2c0.2,0.5,0.5,1,0.8,1.5c0.5,0.8,1.1,1.4,1.9,1.9c0.8,0.5,1.8,0.7,2.9,0.7c1.4,0,2.5-0.4,3.6-1.1
			c1-0.7,1.6-1.3,1.9-1.7c0.7,0.3,1.4,0.4,2,0.4c1,0,1.9-0.1,2.7-0.5c0.1,0,0.1-0.1,0.2-0.1c-0.4,1.3-0.7,2.7-1,4
			c-0.5,2.2-0.7,4.2-0.7,6c0,0.5,0,1,0.1,1.7c0.1,0.6,0.2,1.2,0.5,1.8c0.3,0.5,0.7,1,1.2,1.4c0.5,0.4,1.3,0.6,2.3,0.6
			c0.3,0,0.6,0,0.8-0.1c0.6-0.1,1.4-0.4,2.5-0.9c1.1-0.5,2.1-1.3,3.1-2.3c1-1,1.9-2.3,2.7-3.8c0.8-1.6,1.1-3.4,1.1-5.5
			c0-1.5-0.2-2.8-0.4-4.1c-0.3-1.3-0.7-2.5-1.1-3.6c-0.4-1.1-0.9-2.1-1.4-3.1c-0.5-1-1-1.8-1.3-2.6c0.5-1.3,1-2.4,1.4-3.6
			c0.5-1.1,0.9-2.2,1.4-3.3c1.4-0.1,2.6-0.1,3.6-0.1c1,0,1.5-0.1,1.5-0.3c0-0.1-0.3-0.2-0.9-0.3c-0.6-0.1-1.9-0.2-3.7-0.4
			c0.3-0.8,0.7-1.6,1.1-2.5c0.4-0.8,0.8-1.6,1.1-2.4c0.4-0.8,0.7-1.5,0.9-2.2c0.1-0.4,0.2-0.7,0.3-1.1c2.6,0,5.7-0.1,7.3-0.1
			c3,0,3.7-4.7,3.7-4.7L95.2,29.5z M58,61.4c-0.5,0.2-1,0.3-1.2,0.3c-1.1-0.1-1.9-0.5-2.5-1.2c-0.6-0.7-0.9-1.8-0.9-3.2
			c0-1.5,0.3-2.8,0.9-4.1c0.6-1.3,1.4-2.4,2.3-3.4c-0.1,0.3-0.1,0.7-0.1,1c0,0.4,0,0.7,0,1c0,1.5,0.2,3,0.7,4.5
			c0.5,1.5,1.4,2.7,2.8,3.6C59.2,60.8,58.5,61.2,58,61.4z M63.9,52.3c-0.1,0.4-0.1,0.7-0.2,1.1c-0.2,1-0.5,1.9-0.8,2.6
			c-0.3,0.8-0.7,1.4-1.1,2c-0.7-0.2-1.1-0.8-1.3-1.7c-0.2-0.9-0.3-1.7-0.3-2.3c0-0.7,0.1-1.3,0.3-2.1c0.2-0.7,0.4-1.4,0.7-2
			c0.3-0.6,0.6-1.2,1-1.6c0.4-0.4,0.8-0.7,1.2-0.7c0.3,0.1,0.5,0.5,0.6,1.2c0.1,0.7,0.1,1.5,0.1,2.3C64,51.5,64,51.9,63.9,52.3z
			 M75.6,61.4c-0.5,0.2-1,0.3-1.2,0.3c-1.1-0.1-1.9-0.5-2.5-1.2c-0.6-0.7-0.9-1.8-0.9-3.2c0-1.5,0.3-2.8,0.9-4.1
			c0.6-1.3,1.4-2.4,2.3-3.4c-0.1,0.3-0.1,0.7-0.1,1c0,0.4,0,0.7,0,1c0,1.5,0.2,3,0.7,4.5c0.5,1.5,1.4,2.7,2.8,3.6
			C76.8,60.8,76.2,61.2,75.6,61.4z M81.6,52.3c-0.1,0.4-0.1,0.7-0.2,1.1c-0.2,1-0.5,1.9-0.8,2.6c-0.3,0.8-0.7,1.4-1.1,2
			c-0.7-0.2-1.1-0.8-1.3-1.7c-0.2-0.9-0.3-1.7-0.3-2.3c0-0.7,0.1-1.3,0.3-2.1c0.2-0.7,0.4-1.4,0.7-2c0.3-0.6,0.6-1.2,1-1.6
			c0.4-0.4,0.8-0.7,1.2-0.7c0.3,0.1,0.5,0.5,0.6,1.2c0.1,0.7,0.1,1.5,0.1,2.3C81.7,51.5,81.7,51.9,81.6,52.3z M88.7,43.9
			c-0.1-0.1-0.2-0.2-0.2-0.2c0-0.1,0.1-0.2,0.3-0.2c0.2,0,0.7,0,1.4,0c-0.1,0.3-0.2,0.6-0.3,0.9c-0.1,0.3-0.2,0.6-0.3,0.9
			c-0.2-0.3-0.3-0.5-0.5-0.7C89,44.3,88.9,44.1,88.7,43.9z M93.9,57.1c0.6,1.7,0.9,3.5,0.9,5.4c0,0.8-0.1,1.8-0.4,3
			c-0.3,1.2-0.7,2.4-1.3,3.5C92.5,70,91.8,71,91,71.8c-0.8,0.8-1.8,1.2-3,1.2c-0.4,0-0.7-0.2-0.9-0.5c-0.1-0.4-0.2-0.8-0.2-1.3
			c0-0.4,0-0.8,0-1.1c0-0.4,0.1-0.7,0.1-1c0.4-2.8,1.1-5.6,2-8.5c0.9-2.9,1.9-5.6,2.9-8.2C92.7,53.8,93.3,55.3,93.9,57.1z"/>
	</g>
</g>
</svg>
