<?xml version="1.0" encoding="utf-8"?>
<!-- Generator: Adobe Illustrator 18.0.0, SVG Export Plug-In . SVG Version: 6.00 Build 0)  -->
<!DOCTYPE svg PUBLIC "-//W3C//DTD SVG 1.1//EN" "http://www.w3.org/Graphics/SVG/1.1/DTD/svg11.dtd">
<svg version="1.1" id="Layer_1" xmlns="http://www.w3.org/2000/svg" xmlns:xlink="http://www.w3.org/1999/xlink" x="0px" y="0px"
	 viewBox="0 0 272.4 202.8" enable-background="new 0 0 272.4 202.8" xml:space="preserve">
<g id="XMLID_6_">
	<g id="XMLID_93_">
		<path id="XMLID_94_" fill="#E6E7E8" d="M20.2,202.8v-47.3H26l17,19.9l17-19.9h5.9v47.3h-6.6v-36.9L43,184.9l-16.3-19.1v36.9H20.2z
			"/>
		<path id="XMLID_104_" fill="#E6E7E8" d="M83.7,202.8v-47.3h28.4v6H90.4v14.3h21.1v6.1H90.4v14.7h22.4v6.1H83.7z"/>
		<path id="XMLID_106_" fill="#E6E7E8" d="M146.3,155.5c3.5,0,6.5,0.3,9,1c2.5,0.7,4.8,1.7,6.9,3.1c3.2,2.2,5.7,4.9,7.4,8.3
			c1.7,3.4,2.6,7.1,2.6,11.2c0,4.1-0.9,7.8-2.6,11.2c-1.8,3.4-4.2,6.2-7.4,8.3c-2,1.4-4.3,2.5-6.9,3.1c-2.5,0.7-5.6,1-9,1h-17.4
			v-47.3H146.3z M146.3,161.9h-10.7v34.4h10.7c5.8,0,10.4-1.5,13.7-4.6c3.3-3.1,5-7.3,5-12.6c0-5.3-1.7-9.5-5-12.6
			C156.7,163.5,152.1,161.9,146.3,161.9z"/>
		<path id="XMLID_109_" fill="#E6E7E8" d="M188,202.8v-47.3h6.8v47.3H188z"/>
		<path id="XMLID_111_" fill="#E6E7E8" d="M206.1,202.8l20.5-47.3h4.9l20.7,47.3h-7l-6.1-13.9h-20.1l-6,13.9H206.1z M221.7,182.8
			h14.7l-7.5-17L221.7,182.8z"/>
	</g>
	<g id="XMLID_448_">
		<path id="XMLID_649_" fill="#FFFFFF" d="M126.1,104.2c-3.2,2.4-6.2,3.7-9.2,4.1c-3,0.4-6.5,0.6-10.6,0.6c-5.2,0-10.7-0.7-16.5-2.1
			c-5.8-1.4-11.5-3.4-17-6C67.2,98.1,62,95,57,91.4c-5-3.6-9.2-7.6-12.6-11.8c0.6,0,1.3,0,1.9,0.1c0.6,0.1,1.3,0.1,1.9,0.1
			c5.7,0,11.5-0.9,17.5-2.7c6-1.8,11.7-4.5,17.2-8.1c5.5-3.6,10.5-8.1,15.1-13.5c4.6-5.4,8.3-11.6,11.3-18.7c0.8-1.7,1.5-3.7,2.1-6
			c0.6-2.3,0.9-4.5,0.9-6.7c0-5.7-1.8-10.1-5.4-13.2c-3.6-3.1-7.8-5.6-12.6-7.2C89.6,2,84.8,1,80.1,0.6C75.3,0.2,72,0,69.9,0
			c-6.1,0-12.1,0.6-18,1.9c-5.8,1.3-11.3,2.8-16.4,4.7c-5.1,1.9-9.6,3.9-13.6,6c-3.9,2.1-7,4-9.2,5.6h-0.2c-1.7,1.4-3.1,2.5-4.1,3.3
			c-1,0.8-1.9,1.6-2.6,2.4c-0.7,0.8-1.2,1.7-1.4,2.7c-0.2,1-0.4,2.5-0.4,4.4c0,1.7,0.5,3.7,1.5,5.9c1,2.2,3,4.4,5.8,6.6
			c0.2,0,0.6-0.5,1.4-1.4c0.8-0.9,2-2.2,3.5-3.9c1.6-1.7,3.7-3.6,6.4-5.8c2.7-2.2,6.1-4.5,10.2-6.8c0,0.9-0.2,2.1-0.6,3.5
			c-0.4,1.4-0.8,2.8-1.3,4.3l-1.7,5c-0.8,2.8-1.6,5.4-2.5,7.7c-0.9,2.3-1.7,4.5-2.6,6.7c-0.9,2.2-1.7,4.6-2.6,7.1
			C20.7,62.3,20,65,19.4,68c-3.3-0.6-6-1.7-8.1-3.1c-2.1-1.4-3.9-2.9-5.2-4.4c-1.3-1.5-2.4-2.8-3.1-3.9C2.2,55.6,1.7,55,1.4,55
			C0.5,55,0,55.4,0,56.2v0.5c0,0.2,0.1,0.2,0.2,0.2c1.1,1.9,2.3,3.6,3.7,5.2c1.3,1.6,3.1,3.3,5.4,5.2c2.3,1.9,5.2,3.7,8.9,5.4
			c-0.8,3.6-1.6,7-2.5,10.3c-0.9,3.2-1.3,6.5-1.3,9.8c0,2,0.5,3.7,1.4,4.8c0.9,1.2,2,2.1,3.1,2.8c1.1,0.7,2.2,1.2,3.2,1.5
			c1,0.3,1.7,0.5,2,0.5c0-0.9,0.2-2.3,0.5-4c0.3-1.7,0.7-3.5,1.1-5.2c0.4-1.7,0.9-3.9,1.5-6.6c0-0.5,0.1-1.1,0.4-1.9
			c0.2-0.8,0.5-1.7,0.7-2.6c0.2-0.9,0.5-1.8,0.8-2.7c0.3-0.9,0.6-1.5,0.9-1.8c5.4,6,10.7,11.9,16.2,17.6
			c5.4,5.8,11.3,10.8,17.6,15.1c6.3,4.3,13.1,7.8,20.4,10.3c7.3,2.5,15.5,3.6,24.7,3.3c4.9-0.2,8.8-1,11.8-2.5
			c3-1.5,5.1-3.3,6.4-5.3c1.3-2,1.8-4.2,1.7-6.4C128.6,107.6,127.7,105.7,126.1,104.2z M31.9,72c1.1-2.8,2-5.3,2.8-7.3
			c0.8-2,1.6-4,2.5-5.8c0.9-1.8,1.7-3.6,2.6-5.4c0.9-1.8,1.8-3.8,3-6c0.9-1.9,1.7-3.3,2.1-4.3s0.8-1.7,1.1-2.4
			c0.2-0.6,0.4-1.2,0.4-1.7c0-0.5,0-1.1,0-1.9c0-1.7-0.6-3.3-1.8-4.7c-1.2-1.4-2.5-2.7-4-3.8c-1.5-1.1-3-1.9-4.5-2.5
			c-1.5-0.5-2.5-0.8-3-0.8c2.2-1.3,4.8-2.6,7.7-4.1c2.9-1.5,6.1-2.9,9.7-4.1C54,16,57.8,15,61.8,14.2c4-0.8,8.1-1.2,12.4-1.2
			c2.5,0,5.2,0.2,7.9,0.7c2.8,0.5,5.3,1.2,7.7,2.1s4.3,2.2,5.9,3.7c1.6,1.5,2.4,3.3,2.4,5.3c0,2.2-0.6,4.9-1.8,8
			c-1.2,3.2-2.6,6.5-4.4,9.9C86.5,53.1,79.6,60.9,71.2,66c-8.4,5.1-17.4,7.7-26.8,7.7c-1.9,0-4.1-0.1-6.7-0.2
			C35.1,73.3,33.1,72.8,31.9,72z"/>
		<path id="XMLID_652_" fill="#FFFFFF" d="M227.7,3.3L227.7,3.3L227.7,3.3c0,1-0.2,2.1-0.6,3.6c-0.4,1.4-0.8,2.8-1.3,4.3l-1.7,5
			c-1.3,3.2-2.5,6.4-3.8,9.7c-1.3,3.3-2.9,7.6-5,12.8c-2.2-0.3-4.4-0.6-6.6-0.8c-2.2-0.2-4.3-0.5-6.1-0.8c-0.3,0-0.6,0.1-0.9,0.4
			c-0.3,0.2-0.5,0.5-0.5,0.8c0,0.5,0.7,1.9,2.2,4.1c1.5,2.3,3.7,5.9,6.7,11c-1.4,4.3-3.2,9.3-5.2,15.1c-2,5.8-4,11.9-5.9,18.2
			c0,0,0,0,0,0c-1,0.6-2.1,1.2-3.3,1.7c-1.3,0.6-2.6,0.8-4,0.8c-1.3,0-2.2-0.2-2.8-0.5c2.5-3.1,5-7.3,7.4-12.4
			c2.4-5.1,3.7-10.5,3.7-16.2c0-0.8,0-1.5,0-2.2s-0.1-1.5-0.2-2.2c0-1.1-0.3-2.5-0.8-4.3c-0.6-1.7-1.3-3.4-2.4-5
			c-1-1.6-2.4-3-4.1-4.1c-1.7-1.2-3.9-1.8-6.4-1.8c-2.5,0-4.6,0.4-6.1,1.2c-1.6,0.8-3,1.7-4.3,2.6c-1.3-2-2.2-3.3-2.7-3.7
			c-0.6-0.4-1-0.6-1.3-0.6c-0.9,0.3-2.7,1.5-5.2,3.4c-2.5,2-5.1,4.7-7.7,8.1c-2.6,3.5-4.9,7.6-7,12.4c-2,4.8-3.1,10.3-3.1,16.4
			c0,1.7,0.2,3.5,0.6,5.3c-0.3,0.2-0.7,0.4-1,0.7c-1.1,0.7-2.3,1.3-3.5,1.9c-1.3,0.6-2.6,0.8-4,0.8c-1.3,0-2.2-0.2-2.8-0.5
			c2.5-3.1,5-7.3,7.4-12.4c2.4-5.1,3.7-10.5,3.7-16.2c0-0.8,0-1.5,0-2.2s-0.1-1.5-0.2-2.2c0-1.1-0.3-2.5-0.8-4.3
			c-0.6-1.7-1.3-3.4-2.4-5c-1-1.6-2.4-3-4.1-4.1c-1.7-1.2-3.9-1.8-6.4-1.8c-2.5,0-4.6,0.4-6.1,1.2c-1.6,0.8-3,1.7-4.3,2.6
			c-1.3-2-2.2-3.3-2.7-3.7c-0.6-0.4-1-0.6-1.3-0.6c-0.9,0.3-2.7,1.5-5.2,3.4c-2.5,2-5.1,4.7-7.7,8.1c-2.6,3.5-4.9,7.6-7,12.4
			c-2,4.8-3.1,10.3-3.1,16.4c0,2.4,0.4,4.8,1.1,7.3c0.7,2.5,1.8,4.9,3.2,7.1c1.4,2.2,3.3,4,5.6,5.4c2.3,1.4,5.1,2.1,8.4,2.1
			c3.9,0,7.4-1.1,10.3-3.2c2.9-2.1,4.8-3.7,5.6-4.8c2,0.8,4,1.2,5.9,1.2c3,0,5.6-0.4,7.7-1.3c2.1-0.9,3.8-1.9,5-3.1
			c0.2-0.2,0.4-0.4,0.5-0.6c0.6,1.5,1.3,2.9,2.2,4.2c1.4,2.2,3.3,4,5.6,5.4c2.3,1.4,5.1,2.1,8.4,2.1c3.9,0,7.4-1.1,10.3-3.2
			c2.9-2.1,4.8-3.7,5.6-4.8c2,0.8,4,1.2,5.9,1.2c3,0,5.6-0.4,7.7-1.3c0.2-0.1,0.4-0.2,0.6-0.3c-1,3.8-1.9,7.7-2.8,11.5
			c-1.3,6.3-2,12-2,17.2c0,1.4,0.1,3,0.2,4.8c0.2,1.8,0.6,3.5,1.4,5.1c0.8,1.6,2,2.9,3.5,4c1.6,1.1,3.8,1.7,6.6,1.7
			c0.9,0,1.7-0.1,2.4-0.2c1.7-0.2,4.1-1,7.2-2.6c3.1-1.6,6.1-3.8,9-6.7c2.9-2.9,5.5-6.6,7.7-11.1c2.2-4.5,3.3-9.8,3.3-15.9
			c0-4.3-0.4-8.2-1.3-11.9c-0.9-3.7-1.9-7.1-3.2-10.3c-1.3-3.1-2.6-6.1-4.1-8.9c-1.5-2.8-2.8-5.2-3.9-7.4c1.4-3.6,2.8-7,4.1-10.3
			c1.3-3.2,2.7-6.4,4.1-9.6c4.1-0.2,7.6-0.3,10.5-0.4c2.9-0.1,4.4-0.4,4.4-0.8c0-0.3-0.9-0.6-2.7-0.8c-1.8-0.2-5.4-0.6-10.7-1.1
			c0.9-2.4,2-4.8,3.2-7.2c1.2-2.4,2.3-4.8,3.3-7c1-2.2,1.9-4.3,2.6-6.3c0.4-1.1,0.7-2.1,0.9-3.1c7.6-0.1,16.5-0.2,21-0.2
			c8.7-0.1,10.7-13.6,10.7-13.6L227.7,3.3z M120.2,95.4c-1.6,0.6-2.8,0.9-3.5,0.9c-3.2-0.3-5.6-1.5-7.3-3.4c-1.7-2-2.6-5.1-2.6-9.3
			c0-4.3,0.9-8.2,2.7-11.8c1.8-3.6,4.1-6.8,6.7-9.7c-0.2,0.9-0.3,1.9-0.4,3c-0.1,1-0.1,2-0.1,3c0,4.3,0.7,8.6,2,13
			c1.3,4.4,4.1,7.9,8.1,10.4C123.7,93.5,121.8,94.8,120.2,95.4z M137.5,69c-0.2,1.1-0.4,2.1-0.7,3.1c-0.6,2.8-1.4,5.4-2.4,7.6
			c-0.9,2.2-2,4.2-3.3,5.9c-1.9-0.6-3.2-2.3-3.8-5c-0.6-2.7-0.9-4.9-0.9-6.6c0-1.9,0.3-3.9,0.8-6c0.5-2.1,1.3-4.1,2.1-5.9
			c0.9-1.8,1.8-3.3,3-4.6c1.1-1.3,2.3-1.9,3.5-1.9c0.9,0.3,1.5,1.5,1.7,3.5c0.2,2,0.2,4.3,0.2,6.6C137.7,66.8,137.6,67.9,137.5,69z
			 M171.2,95.4c-1.6,0.6-2.8,0.9-3.5,0.9c-3.2-0.3-5.6-1.5-7.3-3.4c-1.7-2-2.6-5.1-2.6-9.3c0-4.3,0.9-8.2,2.7-11.8
			c1.8-3.6,4.1-6.8,6.7-9.7c-0.2,0.9-0.3,1.9-0.4,3c-0.1,1-0.1,2-0.1,3c0,4.3,0.7,8.6,2,13c1.3,4.4,4.1,7.9,8.1,10.4
			C174.7,93.5,172.8,94.8,171.2,95.4z M188.5,69c-0.2,1.1-0.4,2.1-0.7,3.1c-0.6,2.8-1.4,5.4-2.4,7.6c-0.9,2.2-2,4.2-3.3,5.9
			c-1.9-0.6-3.2-2.3-3.8-5c-0.6-2.7-0.9-4.9-0.9-6.6c0-1.9,0.3-3.9,0.8-6c0.5-2.1,1.3-4.1,2.1-5.9c0.9-1.8,1.8-3.3,3-4.6
			c1.1-1.3,2.3-1.9,3.5-1.9c0.9,0.3,1.5,1.5,1.7,3.5c0.2,2,0.2,4.3,0.2,6.6C188.7,66.8,188.6,67.9,188.5,69z M209,44.6
			c-0.3-0.3-0.5-0.5-0.5-0.7c0-0.3,0.3-0.5,0.9-0.5c0.6,0,2,0,4,0c-0.3,0.8-0.6,1.6-0.8,2.5c-0.2,0.9-0.5,1.7-0.8,2.5
			c-0.5-0.8-0.9-1.5-1.4-2C210,45.9,209.5,45.3,209,44.6z M224,82.8c1.7,5,2.5,10.1,2.5,15.5c0,2.4-0.4,5.3-1.2,8.7
			c-0.8,3.5-2,6.8-3.7,10c-1.7,3.2-3.7,6-6.1,8.3c-2.4,2.3-5.3,3.4-8.6,3.4c-1.3,0-2.1-0.5-2.5-1.5c-0.4-1-0.6-2.2-0.6-3.7
			c0-1.1,0-2.2,0.1-3.2c0.1-1,0.2-2,0.4-3c1.3-8,3.2-16.2,5.9-24.4c2.7-8.3,5.5-16.2,8.5-23.7C220.6,73.3,222.4,77.8,224,82.8z"/>
	</g>
</g>
</svg>
